<svg xmlns="http://www.w3.org/2000/svg" xmlns:xlink="http://www.w3.org/1999/xlink" width="1400" zoomAndPan="magnify" viewBox="0 0 1050 525.000007" height="700" preserveAspectRatio="xMidYMid meet" version="1.0"><defs><g/><clipPath id="1b0c7a1787"><path d="M 395.050781 167.257812 L 611 167.257812 L 611 356.648438 L 395.050781 356.648438 Z M 395.050781 167.257812 " clip-rule="nonzero"/></clipPath><clipPath id="db0cf4b5c7"><path d="M 403 167.257812 L 624 167.257812 L 624 356.648438 L 403 356.648438 Z M 403 167.257812 " clip-rule="nonzero"/></clipPath><clipPath id="7c71914d96"><path d="M 417 167.257812 L 642 167.257812 L 642 356.648438 L 417 356.648438 Z M 417 167.257812 " clip-rule="nonzero"/></clipPath><clipPath id="091198a3a3"><path d="M 435 167.257812 L 654.808594 167.257812 L 654.808594 356.648438 L 435 356.648438 Z M 435 167.257812 " clip-rule="nonzero"/></clipPath></defs><g clip-path="url(#1b0c7a1787)"><path fill="#ffffff" d="M 605.722656 270.960938 L 605.722656 270.6875 C 586.542969 270.6875 582.117188 284.035156 578.210938 295.8125 C 575.027344 305.40625 572.003906 314.503906 561.738281 315.898438 C 546.320312 312.265625 542.410156 256.503906 539.527344 215.417969 C 537.378906 184.820312 535.976562 167.507812 532.089844 167.507812 C 531.320312 167.507812 530.59375 168.371094 529.894531 170.050781 C 529.238281 168.375 528.496094 167.507812 527.628906 167.507812 C 523.625 167.507812 520.855469 190.699219 516.308594 231.683594 C 510.78125 281.519531 503.308594 348.863281 489.976562 355.324219 C 477.4375 349.871094 473.03125 300.886719 469.453125 261.078125 C 466.507812 228.304688 464.472656 208.21875 459.957031 208.21875 C 459.105469 208.21875 458.25 208.699219 457.386719 209.582031 C 456.804688 208.6875 456.179688 208.21875 455.496094 208.21875 C 451.300781 208.21875 447.113281 219.628906 441.320312 235.417969 C 431.328125 262.644531 417.65625 299.917969 395.152344 299.917969 C 395.121094 299.917969 395.085938 299.917969 395.054688 299.917969 L 395.050781 300.457031 C 395.085938 300.457031 395.121094 300.457031 395.152344 300.457031 C 396.648438 300.457031 398.101562 300.292969 399.515625 299.988281 L 399.515625 300.457031 C 399.546875 300.457031 399.582031 300.457031 399.617188 300.457031 C 422.492188 300.457031 436.246094 262.980469 446.289062 235.601562 C 450.5625 223.960938 454.136719 214.222656 457.308594 210.445312 C 460.445312 216.539062 462.402344 238.292969 464.457031 261.125 C 468.269531 303.558594 473.019531 356.371094 487.875 356.371094 C 488.601562 356.371094 489.308594 356.210938 490 355.902344 C 490.753906 356.207031 491.53125 356.371094 492.339844 356.371094 C 507.480469 356.371094 515.148438 287.269531 521.308594 231.746094 C 524.210938 205.582031 526.984375 180.582031 529.875 171.574219 C 531.953125 178.769531 533.171875 196.105469 534.527344 215.453125 C 537.6875 260.53125 541.625 316.628906 558.894531 316.628906 C 559.890625 316.628906 560.824219 316.5625 561.710938 316.449219 C 562.246094 316.566406 562.792969 316.628906 563.359375 316.628906 C 576.335938 316.628906 579.660156 306.601562 583.183594 295.980469 C 587.21875 283.8125 591.394531 271.226562 610.1875 271.226562 L 610.1875 270.6875 C 608.597656 270.6875 607.117188 270.789062 605.722656 270.960938 Z M 445.78125 235.417969 C 435.824219 262.554688 422.207031 299.664062 399.839844 299.910156 C 419.941406 295.234375 432.488281 261.054688 441.828125 235.601562 C 447.328125 220.605469 451.675781 208.757812 455.496094 208.757812 C 456.039062 208.757812 456.550781 209.175781 457.035156 209.960938 C 453.746094 213.722656 450.238281 223.269531 445.78125 235.417969 Z M 487.875 355.832031 C 473.511719 355.832031 468.785156 303.292969 464.992188 261.078125 C 462.5625 234.054688 460.75 215.671875 457.660156 210.050781 C 458.449219 209.214844 459.214844 208.757812 459.957031 208.757812 C 464.210938 208.757812 466.496094 234.195312 468.917969 261.125 C 472.460938 300.550781 476.8125 348.921875 489.328125 355.585938 C 488.851562 355.746094 488.367188 355.832031 487.875 355.832031 Z M 520.769531 231.683594 C 514.957031 284.078125 506.996094 355.832031 492.339844 355.832031 C 491.757812 355.832031 491.195312 355.738281 490.644531 355.570312 C 503.976562 347.730469 511.070312 283.777344 516.84375 231.746094 C 520.480469 198.988281 523.910156 168.046875 527.628906 168.046875 C 528.375 168.046875 529.03125 169.007812 529.621094 170.75 C 526.796875 178.449219 524.328125 199.621094 520.769531 231.683594 Z M 558.894531 316.089844 C 542.125 316.089844 538.046875 257.902344 535.066406 215.417969 C 533.460938 192.554688 532.273438 177.117188 530.152344 170.765625 C 530.789062 169.007812 531.4375 168.046875 532.089844 168.046875 C 535.664062 168.046875 537.207031 190.015625 538.988281 215.457031 C 541.960938 257.832031 545.621094 309.945312 560.398438 316.035156 C 559.910156 316.066406 559.414062 316.089844 558.894531 316.089844 Z M 582.671875 295.8125 C 579.246094 306.140625 576.003906 315.894531 563.710938 316.082031 C 572.785156 313.863281 575.683594 305.144531 578.722656 295.984375 C 582.605469 284.277344 586.621094 272.191406 603.648438 271.285156 C 589.90625 274.007812 586.089844 285.511719 582.671875 295.8125 Z M 582.671875 295.8125 " fill-opacity="1" fill-rule="nonzero"/></g><g clip-path="url(#db0cf4b5c7)"><path fill="#ffffff" d="M 619.113281 270.960938 L 619.113281 270.6875 C 617.523438 270.6875 616.042969 270.789062 614.648438 270.960938 L 614.648438 270.6875 C 595.46875 270.6875 591.039062 284.035156 587.132812 295.8125 C 584.261719 304.472656 581.515625 312.726562 573.464844 315.28125 C 559.421875 308.152344 555.6875 254.980469 552.914062 215.417969 C 550.765625 184.820312 549.363281 167.507812 545.476562 167.507812 C 544.707031 167.507812 543.980469 168.371094 543.28125 170.050781 C 542.625 168.375 541.882812 167.507812 541.015625 167.507812 C 540.242188 167.507812 539.519531 168.371094 538.816406 170.050781 C 538.164062 168.375 537.421875 167.507812 536.554688 167.507812 C 532.550781 167.507812 529.78125 190.699219 525.234375 231.683594 C 520.007812 278.804688 513.039062 341.566406 501.027344 353.730469 C 490.257812 343.566406 486.1875 298.308594 482.839844 261.078125 C 479.894531 228.304688 477.859375 208.21875 473.34375 208.21875 C 472.492188 208.21875 471.636719 208.699219 470.773438 209.582031 C 470.191406 208.6875 469.566406 208.21875 468.882812 208.21875 C 468.027344 208.21875 467.175781 208.699219 466.3125 209.582031 C 465.730469 208.6875 465.101562 208.21875 464.417969 208.21875 C 460.222656 208.21875 456.039062 219.628906 450.246094 235.417969 C 440.253906 262.644531 426.578125 299.917969 404.078125 299.917969 C 404.046875 299.917969 404.011719 299.917969 403.980469 299.917969 L 403.976562 300.457031 C 404.011719 300.457031 404.042969 300.457031 404.078125 300.457031 C 405.570312 300.457031 407.023438 300.292969 408.441406 299.988281 L 408.441406 300.457031 C 408.472656 300.457031 408.507812 300.457031 408.539062 300.457031 C 410.035156 300.457031 411.488281 300.292969 412.90625 299.988281 L 412.902344 300.457031 C 412.9375 300.457031 412.96875 300.457031 413.003906 300.457031 C 435.878906 300.457031 449.632812 262.980469 459.675781 235.601562 C 462.707031 227.347656 465.382812 220.054688 467.816406 215.15625 C 470.078125 224.386719 471.695312 242.394531 473.378906 261.125 C 477.195312 303.558594 481.945312 356.371094 496.800781 356.371094 C 497.527344 356.371094 498.234375 356.210938 498.925781 355.902344 C 499.675781 356.207031 500.453125 356.371094 501.265625 356.371094 C 501.988281 356.371094 502.695312 356.210938 503.386719 355.902344 C 504.136719 356.207031 504.917969 356.371094 505.726562 356.371094 C 520.867188 356.371094 528.535156 287.269531 534.695312 231.742188 C 536.757812 213.15625 538.753906 195.15625 540.773438 183.058594 C 541.78125 191.648438 542.589844 203.144531 543.453125 215.453125 C 546.613281 260.53125 550.550781 316.628906 567.820312 316.628906 C 568.816406 316.628906 569.75 316.5625 570.636719 316.449219 C 571.171875 316.566406 571.71875 316.628906 572.285156 316.628906 C 573.28125 316.628906 574.210938 316.5625 575.097656 316.449219 C 575.632812 316.566406 576.183594 316.628906 576.746094 316.628906 C 589.722656 316.628906 593.050781 306.601562 596.570312 295.980469 C 600.605469 283.8125 604.78125 271.226562 623.574219 271.226562 L 623.574219 270.6875 C 621.984375 270.6875 620.507812 270.789062 619.113281 270.960938 Z M 587.644531 295.980469 C 591.527344 284.273438 595.546875 272.191406 612.570312 271.285156 C 598.828125 274.007812 595.011719 285.511719 591.597656 295.8125 C 588.414062 305.40625 585.390625 314.503906 575.128906 315.898438 C 574.820312 315.828125 574.515625 315.726562 574.21875 315.613281 C 582.0625 312.8125 584.789062 304.589844 587.644531 295.980469 Z M 545.476562 168.046875 C 549.050781 168.046875 550.589844 190.015625 552.375 215.453125 C 555.273438 256.785156 558.828125 307.371094 572.710938 315.496094 C 572.0625 315.667969 571.378906 315.800781 570.664062 315.898438 C 555.246094 312.265625 551.332031 256.5 548.453125 215.417969 C 546.847656 192.554688 545.660156 177.113281 543.539062 170.765625 C 544.179688 169.007812 544.824219 168.046875 545.476562 168.046875 Z M 541.015625 168.046875 C 541.761719 168.046875 542.417969 169.007812 543.007812 170.75 C 542.269531 172.753906 541.558594 175.671875 540.847656 179.457031 C 540.320312 175.691406 539.746094 172.773438 539.074219 170.765625 C 539.714844 169.007812 540.359375 168.046875 541.015625 168.046875 Z M 525.769531 231.746094 C 529.402344 198.988281 532.835938 168.046875 536.554688 168.046875 C 537.296875 168.046875 537.957031 169.007812 538.542969 170.75 C 535.722656 178.449219 533.253906 199.621094 529.695312 231.683594 C 524.167969 281.519531 516.695312 348.863281 503.363281 355.324219 C 502.691406 355.03125 502.042969 354.621094 501.417969 354.085938 C 513.566406 341.710938 520.269531 281.320312 525.769531 231.746094 Z M 473.34375 208.757812 C 477.597656 208.757812 479.882812 234.195312 482.304688 261.125 C 485.648438 298.328125 489.710938 343.507812 500.675781 354.078125 C 500.09375 354.613281 499.503906 355.03125 498.898438 355.324219 C 486.363281 349.867188 481.957031 300.886719 478.378906 261.074219 C 475.949219 234.054688 474.136719 215.671875 471.046875 210.046875 C 471.835938 209.214844 472.601562 208.757812 473.34375 208.757812 Z M 468.882812 208.757812 C 469.425781 208.757812 469.9375 209.179688 470.421875 209.960938 C 469.621094 210.875 468.808594 212.132812 467.972656 213.6875 C 467.539062 212.160156 467.078125 210.945312 466.585938 210.046875 C 467.375 209.214844 468.136719 208.757812 468.882812 208.757812 Z M 450.75 235.601562 C 456.253906 220.605469 460.601562 208.757812 464.417969 208.757812 C 464.964844 208.757812 465.476562 209.179688 465.960938 209.960938 C 462.667969 213.722656 459.164062 223.269531 454.707031 235.417969 C 444.75 262.554688 431.132812 299.664062 408.765625 299.910156 C 428.867188 295.234375 441.410156 261.054688 450.75 235.601562 Z M 459.167969 235.417969 C 449.210938 262.554688 435.59375 299.664062 413.226562 299.910156 C 433.328125 295.234375 445.875 261.054688 455.214844 235.601562 C 459.484375 223.960938 463.058594 214.222656 466.230469 210.445312 C 466.71875 211.394531 467.179688 212.714844 467.613281 214.367188 C 465.109375 219.226562 462.386719 226.644531 459.167969 235.417969 Z M 496.800781 355.832031 C 482.433594 355.832031 477.710938 303.292969 473.917969 261.078125 C 471.933594 239.042969 470.367188 222.757812 468.179688 214.441406 C 469.046875 212.765625 469.882812 211.410156 470.695312 210.445312 C 473.832031 216.539062 475.789062 238.292969 477.84375 261.125 C 481.386719 300.550781 485.738281 348.921875 498.253906 355.585938 C 497.777344 355.746094 497.292969 355.832031 496.800781 355.832031 Z M 501.261719 355.832031 C 500.683594 355.832031 500.121094 355.738281 499.570312 355.570312 C 500.078125 355.273438 500.570312 354.886719 501.058594 354.429688 C 501.59375 354.902344 502.144531 355.285156 502.714844 355.585938 C 502.238281 355.746094 501.753906 355.832031 501.261719 355.832031 Z M 534.15625 231.683594 C 528.34375 284.078125 520.382812 355.832031 505.726562 355.832031 C 505.144531 355.832031 504.582031 355.738281 504.035156 355.570312 C 517.363281 347.730469 524.460938 283.777344 530.230469 231.746094 C 533.132812 205.582031 535.910156 180.582031 538.800781 171.574219 C 539.457031 173.839844 540.027344 177.117188 540.539062 181.148438 C 538.617188 192.027344 536.65625 209.171875 534.15625 231.683594 Z M 567.820312 316.089844 C 551.050781 316.089844 546.96875 257.902344 543.988281 215.417969 C 542.96875 200.878906 542.117188 189.347656 541.085938 181.238281 C 541.808594 177.152344 542.53125 173.851562 543.261719 171.574219 C 545.339844 178.765625 546.558594 196.105469 547.914062 215.453125 C 550.886719 257.832031 554.542969 309.945312 569.320312 316.035156 C 568.835938 316.066406 568.339844 316.089844 567.820312 316.089844 Z M 572.632812 316.082031 C 572.902344 316.015625 573.164062 315.949219 573.421875 315.871094 C 573.542969 315.929688 573.660156 315.984375 573.785156 316.035156 C 573.410156 316.0625 573.027344 316.078125 572.632812 316.082031 Z M 596.058594 295.8125 C 592.632812 306.140625 589.390625 315.898438 577.097656 316.082031 C 586.171875 313.863281 589.070312 305.144531 592.109375 295.984375 C 595.992188 284.277344 600.007812 272.191406 617.035156 271.285156 C 603.292969 274.007812 599.476562 285.511719 596.058594 295.8125 Z M 596.058594 295.8125 " fill-opacity="1" fill-rule="nonzero"/></g><g clip-path="url(#7c71914d96)"><path fill="#fd6000" d="M 636.960938 270.960938 L 636.960938 270.6875 C 635.371094 270.6875 633.894531 270.789062 632.5 270.960938 L 632.5 270.6875 C 630.910156 270.6875 629.429688 270.789062 628.035156 270.960938 L 628.035156 270.6875 C 608.855469 270.6875 604.425781 284.035156 600.519531 295.8125 C 597.996094 303.425781 595.570312 310.722656 589.550781 314.113281 C 576.949219 303.597656 573.417969 253.273438 570.761719 215.417969 C 568.617188 184.820312 567.210938 167.507812 563.328125 167.507812 C 562.554688 167.507812 561.832031 168.371094 561.128906 170.050781 C 560.472656 168.375 559.730469 167.507812 558.863281 167.507812 C 558.09375 167.507812 557.367188 168.371094 556.667969 170.050781 C 556.011719 168.375 555.269531 167.507812 554.402344 167.507812 C 553.628906 167.507812 552.90625 168.371094 552.203125 170.050781 C 551.550781 168.375 550.804688 167.507812 549.941406 167.507812 C 545.933594 167.507812 543.167969 190.699219 538.621094 231.683594 C 533.714844 275.882812 527.285156 333.859375 516.589844 350.914062 C 507.507812 336.90625 503.789062 295.550781 500.691406 261.078125 C 497.742188 228.304688 495.707031 208.21875 491.191406 208.21875 C 490.339844 208.21875 489.488281 208.699219 488.621094 209.582031 C 488.039062 208.6875 487.414062 208.21875 486.730469 208.21875 C 485.878906 208.21875 485.023438 208.699219 484.160156 209.582031 C 483.578125 208.6875 482.953125 208.21875 482.269531 208.21875 C 481.414062 208.21875 480.5625 208.699219 479.699219 209.582031 C 479.117188 208.6875 478.488281 208.21875 477.804688 208.21875 C 473.609375 208.21875 469.425781 219.628906 463.632812 235.417969 C 453.640625 262.644531 439.964844 299.917969 417.464844 299.917969 C 417.433594 299.917969 417.398438 299.917969 417.367188 299.917969 L 417.363281 300.457031 C 417.398438 300.457031 417.429688 300.457031 417.464844 300.457031 C 418.957031 300.457031 420.410156 300.292969 421.828125 299.988281 L 421.828125 300.457031 C 421.859375 300.457031 421.894531 300.457031 421.925781 300.457031 C 423.421875 300.457031 424.875 300.292969 426.292969 299.988281 L 426.289062 300.457031 C 426.324219 300.457031 426.355469 300.457031 426.390625 300.457031 C 427.882812 300.457031 429.335938 300.292969 430.753906 299.988281 L 430.75 300.457031 C 430.785156 300.457031 430.820312 300.457031 430.851562 300.457031 C 453.730469 300.457031 467.480469 262.980469 477.527344 235.601562 C 479.324219 230.699219 481 226.136719 482.574219 222.210938 C 484.160156 232.128906 485.445312 246.402344 486.769531 261.125 C 490.582031 303.558594 495.332031 356.371094 510.1875 356.371094 C 510.914062 356.371094 511.621094 356.210938 512.3125 355.902344 C 513.0625 356.207031 513.839844 356.371094 514.652344 356.371094 C 515.375 356.371094 516.082031 356.210938 516.773438 355.902344 C 517.527344 356.207031 518.304688 356.371094 519.113281 356.371094 C 519.839844 356.371094 520.546875 356.210938 521.238281 355.902344 C 521.988281 356.207031 522.765625 356.371094 523.574219 356.371094 C 538.71875 356.371094 546.382812 287.269531 552.542969 231.746094 C 553.679688 221.503906 554.796875 211.445312 555.90625 202.449219 C 556.21875 206.609375 556.527344 210.976562 556.839844 215.453125 C 560 260.53125 563.9375 316.628906 581.207031 316.628906 C 582.203125 316.628906 583.136719 316.5625 584.023438 316.449219 C 584.558594 316.566406 585.105469 316.628906 585.667969 316.628906 C 586.664062 316.628906 587.597656 316.5625 588.484375 316.449219 C 589.019531 316.566406 589.570312 316.628906 590.132812 316.628906 C 591.128906 316.628906 592.0625 316.5625 592.949219 316.449219 C 593.484375 316.566406 594.03125 316.628906 594.59375 316.628906 C 607.574219 316.628906 610.898438 306.601562 614.421875 295.984375 C 618.457031 283.8125 622.632812 271.226562 641.425781 271.226562 L 641.425781 270.6875 C 639.832031 270.6875 638.355469 270.789062 636.960938 270.960938 Z M 592.976562 315.898438 C 592.667969 315.828125 592.367188 315.726562 592.066406 315.613281 C 599.910156 312.808594 602.640625 304.589844 605.496094 295.980469 C 609.378906 284.273438 613.394531 272.191406 630.421875 271.285156 C 616.679688 274.007812 612.863281 285.511719 609.445312 295.8125 C 606.265625 305.40625 603.238281 314.503906 592.976562 315.898438 Z M 601.03125 295.980469 C 604.914062 284.273438 608.933594 272.191406 625.957031 271.285156 C 612.214844 274.007812 608.398438 285.511719 604.984375 295.8125 C 602.113281 304.472656 599.367188 312.726562 591.3125 315.28125 C 590.875 315.058594 590.449219 314.796875 590.035156 314.488281 C 596.054688 310.980469 598.496094 303.636719 601.03125 295.980469 Z M 588.515625 315.898438 C 588.207031 315.828125 587.902344 315.730469 587.605469 315.613281 C 588.273438 315.375 588.898438 315.097656 589.496094 314.78125 C 589.84375 315.050781 590.199219 315.285156 590.558594 315.496094 C 589.910156 315.667969 589.230469 315.800781 588.515625 315.898438 Z M 563.328125 168.046875 C 566.898438 168.046875 568.441406 190.015625 570.226562 215.453125 C 573.015625 255.222656 576.410156 303.566406 589.03125 314.398438 C 588.351562 314.742188 587.621094 315.035156 586.851562 315.28125 C 572.808594 308.152344 569.078125 254.980469 566.300781 215.417969 C 564.699219 192.554688 563.507812 177.117188 561.386719 170.765625 C 562.027344 169.007812 562.671875 168.046875 563.328125 168.046875 Z M 584.050781 315.898438 C 568.632812 312.265625 564.71875 256.503906 561.839844 215.417969 C 560.820312 200.878906 559.964844 189.347656 558.9375 181.242188 C 559.65625 177.15625 560.378906 173.851562 561.113281 171.574219 C 563.1875 178.769531 564.40625 196.105469 565.761719 215.457031 C 568.664062 256.785156 572.214844 307.375 586.097656 315.496094 C 585.449219 315.667969 584.765625 315.800781 584.050781 315.898438 Z M 558.863281 168.046875 C 559.609375 168.046875 560.265625 169.007812 560.855469 170.75 C 560.121094 172.753906 559.410156 175.671875 558.699219 179.457031 C 558.171875 175.691406 557.59375 172.773438 556.925781 170.765625 C 557.566406 169.007812 558.210938 168.046875 558.863281 168.046875 Z M 558.390625 181.148438 C 557.621094 185.503906 556.84375 190.859375 556.03125 197.164062 C 555.527344 190.914062 555.023438 185.585938 554.472656 181.242188 C 555.195312 177.15625 555.917969 173.851562 556.648438 171.574219 C 557.304688 173.84375 557.875 177.117188 558.390625 181.148438 Z M 554.402344 168.046875 C 555.148438 168.046875 555.804688 169.007812 556.394531 170.75 C 555.660156 172.753906 554.949219 175.671875 554.234375 179.457031 C 553.710938 175.691406 553.132812 172.773438 552.464844 170.765625 C 553.101562 169.007812 553.746094 168.046875 554.402344 168.046875 Z M 553.925781 181.152344 C 552.003906 192.03125 550.042969 209.171875 547.546875 231.683594 C 542.015625 281.519531 534.542969 348.863281 521.210938 355.324219 C 520.542969 355.03125 519.890625 354.621094 519.265625 354.085938 C 531.417969 341.710938 538.117188 281.316406 543.617188 231.742188 C 546.519531 205.582031 549.296875 180.582031 552.1875 171.574219 C 552.84375 173.84375 553.410156 177.121094 553.925781 181.152344 Z M 539.15625 231.746094 C 542.789062 198.988281 546.222656 168.046875 549.941406 168.046875 C 550.683594 168.046875 551.339844 169.007812 551.929688 170.75 C 549.109375 178.449219 546.640625 199.621094 543.082031 231.683594 C 537.855469 278.800781 530.890625 341.566406 518.878906 353.730469 C 518.195312 353.085938 517.539062 352.304688 516.910156 351.390625 C 527.742188 334.589844 533.980469 278.382812 539.15625 231.746094 Z M 518.523438 354.078125 C 517.945312 354.613281 517.355469 355.03125 516.75 355.324219 C 516.078125 355.03125 515.429688 354.621094 514.804688 354.085938 C 515.425781 353.453125 516.035156 352.691406 516.628906 351.8125 C 517.238281 352.6875 517.867188 353.445312 518.523438 354.078125 Z M 491.195312 208.757812 C 495.445312 208.757812 497.730469 234.195312 500.152344 261.125 C 503.261719 295.707031 506.992188 337.179688 516.308594 351.34375 C 515.691406 352.277344 515.058594 353.078125 514.414062 353.730469 C 503.644531 343.566406 499.574219 298.308594 496.226562 261.078125 C 493.796875 234.054688 491.988281 215.671875 488.894531 210.050781 C 489.683594 209.214844 490.449219 208.757812 491.195312 208.757812 Z M 514.0625 354.078125 C 513.484375 354.613281 512.890625 355.03125 512.289062 355.324219 C 499.75 349.871094 495.34375 300.886719 491.765625 261.078125 C 489.785156 239.042969 488.214844 222.757812 486.027344 214.441406 C 486.894531 212.765625 487.730469 211.410156 488.542969 210.445312 C 491.679688 216.539062 493.636719 238.292969 495.691406 261.125 C 499.035156 298.328125 503.097656 343.507812 514.0625 354.078125 Z M 486.730469 208.757812 C 487.277344 208.757812 487.789062 209.179688 488.269531 209.960938 C 487.472656 210.875 486.65625 212.132812 485.820312 213.6875 C 485.386719 212.160156 484.925781 210.945312 484.433594 210.050781 C 485.222656 209.214844 485.988281 208.757812 486.730469 208.757812 Z M 485.464844 214.367188 C 484.601562 216.039062 483.714844 218.015625 482.789062 220.246094 C 482.402344 218.011719 481.996094 216.078125 481.566406 214.441406 C 482.433594 212.765625 483.269531 211.410156 484.082031 210.445312 C 484.570312 211.390625 485.027344 212.714844 485.464844 214.367188 Z M 482.269531 208.757812 C 482.8125 208.757812 483.324219 209.179688 483.808594 209.960938 C 483.007812 210.875 482.195312 212.132812 481.359375 213.6875 C 480.925781 212.160156 480.464844 210.945312 479.972656 210.050781 C 480.761719 209.214844 481.523438 208.757812 482.269531 208.757812 Z M 464.136719 235.601562 C 469.640625 220.605469 473.988281 208.757812 477.804688 208.757812 C 478.351562 208.757812 478.863281 209.179688 479.347656 209.960938 C 476.054688 213.722656 472.550781 223.269531 468.09375 235.417969 C 458.136719 262.554688 444.519531 299.664062 422.152344 299.910156 C 442.253906 295.234375 454.800781 261.054688 464.136719 235.601562 Z M 468.601562 235.601562 C 472.871094 223.960938 476.445312 214.222656 479.617188 210.445312 C 480.105469 211.390625 480.566406 212.714844 481 214.367188 C 478.496094 219.226562 475.777344 226.644531 472.558594 235.417969 C 462.601562 262.554688 448.984375 299.660156 426.613281 299.910156 C 446.714844 295.234375 459.261719 261.054688 468.601562 235.601562 Z M 477.019531 235.417969 C 467.0625 262.554688 453.445312 299.664062 431.074219 299.910156 C 451.179688 295.234375 463.722656 261.054688 473.0625 235.601562 C 476.089844 227.347656 478.769531 220.054688 481.203125 215.160156 C 481.625 216.878906 482.023438 218.902344 482.402344 221.183594 C 480.75 225.246094 478.976562 230.082031 477.019531 235.417969 Z M 510.1875 355.832031 C 495.820312 355.832031 491.097656 303.292969 487.304688 261.078125 C 485.769531 244.007812 484.480469 230.390625 482.960938 221.25 C 483.898438 218.957031 484.796875 216.90625 485.664062 215.15625 C 487.925781 224.386719 489.542969 242.394531 491.230469 261.125 C 494.773438 300.550781 499.125 348.921875 511.640625 355.585938 C 511.164062 355.746094 510.679688 355.832031 510.1875 355.832031 Z M 514.648438 355.832031 C 514.070312 355.832031 513.507812 355.738281 512.957031 355.570312 C 513.464844 355.273438 513.960938 354.886719 514.449219 354.429688 C 514.980469 354.902344 515.535156 355.285156 516.101562 355.585938 C 515.625 355.746094 515.140625 355.832031 514.648438 355.832031 Z M 519.113281 355.832031 C 518.53125 355.832031 517.96875 355.738281 517.421875 355.570312 C 517.925781 355.273438 518.421875 354.886719 518.910156 354.429688 C 519.445312 354.898438 519.996094 355.285156 520.5625 355.585938 C 520.085938 355.746094 519.601562 355.832031 519.113281 355.832031 Z M 552.007812 231.683594 C 546.195312 284.078125 538.234375 355.832031 523.574219 355.832031 C 522.992188 355.832031 522.429688 355.738281 521.882812 355.570312 C 535.210938 347.730469 542.308594 283.777344 548.082031 231.746094 C 550.144531 213.15625 552.140625 195.15625 554.160156 183.0625 C 554.722656 187.84375 555.222656 193.523438 555.703125 199.746094 C 554.574219 208.695312 553.371094 219.386719 552.007812 231.683594 Z M 581.207031 316.089844 C 564.4375 316.089844 560.355469 257.902344 557.375 215.417969 C 556.976562 209.742188 556.605469 204.53125 556.238281 199.796875 C 557.03125 193.515625 557.824219 187.832031 558.621094 183.058594 C 559.628906 191.648438 560.4375 203.144531 561.300781 215.453125 C 564.273438 257.832031 567.929688 309.945312 582.707031 316.035156 C 582.222656 316.066406 581.726562 316.089844 581.207031 316.089844 Z M 586.023438 316.082031 C 586.289062 316.015625 586.550781 315.949219 586.808594 315.871094 C 586.929688 315.929688 587.050781 315.984375 587.171875 316.035156 C 586.796875 316.0625 586.414062 316.078125 586.023438 316.082031 Z M 590.484375 316.082031 C 590.75 316.015625 591.011719 315.949219 591.269531 315.871094 C 591.390625 315.929688 591.511719 315.984375 591.632812 316.035156 C 591.257812 316.0625 590.875 316.078125 590.484375 316.082031 Z M 613.90625 295.8125 C 610.480469 306.140625 607.238281 315.898438 594.945312 316.082031 C 604.019531 313.863281 606.917969 305.144531 609.957031 295.984375 C 613.839844 284.273438 617.855469 272.191406 634.882812 271.285156 C 621.140625 274.007812 617.324219 285.511719 613.90625 295.8125 Z M 613.90625 295.8125 " fill-opacity="1" fill-rule="nonzero"/></g><g clip-path="url(#091198a3a3)"><path fill="#963900" d="M 650.347656 270.960938 L 650.347656 270.6875 C 648.757812 270.6875 647.28125 270.789062 645.882812 270.960938 L 645.882812 270.6875 C 626.703125 270.6875 622.277344 284.035156 618.371094 295.8125 C 615.496094 304.472656 612.753906 312.726562 604.699219 315.28125 C 590.65625 308.152344 586.925781 254.980469 584.148438 215.417969 C 582.003906 184.820312 580.597656 167.507812 576.710938 167.507812 C 575.941406 167.507812 575.214844 168.371094 574.515625 170.050781 C 573.859375 168.375 573.117188 167.507812 572.25 167.507812 C 571.480469 167.507812 570.753906 168.371094 570.054688 170.050781 C 569.398438 168.375 568.65625 167.507812 567.789062 167.507812 C 563.785156 167.507812 561.015625 190.699219 556.46875 231.683594 C 551.242188 278.800781 544.277344 341.566406 532.265625 353.730469 C 521.496094 343.566406 517.421875 298.308594 514.074219 261.078125 C 511.128906 228.304688 509.09375 208.21875 504.578125 208.21875 C 503.726562 208.21875 502.875 208.699219 502.007812 209.582031 C 501.425781 208.6875 500.800781 208.21875 500.117188 208.21875 C 499.265625 208.21875 498.410156 208.699219 497.546875 209.582031 C 496.964844 208.6875 496.339844 208.21875 495.65625 208.21875 C 491.460938 208.21875 487.273438 219.628906 481.480469 235.417969 C 471.492188 262.644531 457.816406 299.917969 435.3125 299.917969 C 435.28125 299.917969 435.246094 299.917969 435.214844 299.917969 L 435.214844 300.457031 C 435.246094 300.457031 435.28125 300.457031 435.3125 300.457031 C 436.808594 300.457031 438.261719 300.292969 439.679688 299.988281 L 439.675781 300.457031 C 439.710938 300.457031 439.742188 300.457031 439.777344 300.457031 C 441.269531 300.457031 442.722656 300.292969 444.140625 299.988281 L 444.136719 300.457031 C 444.171875 300.457031 444.207031 300.457031 444.238281 300.457031 C 467.117188 300.457031 480.867188 262.980469 490.910156 235.601562 C 493.941406 227.347656 496.617188 220.054688 499.050781 215.15625 C 501.3125 224.386719 502.933594 242.390625 504.617188 261.125 C 508.429688 303.558594 513.179688 356.371094 528.039062 356.371094 C 528.761719 356.371094 529.46875 356.210938 530.160156 355.902344 C 530.914062 356.207031 531.691406 356.371094 532.5 356.371094 C 533.226562 356.371094 533.933594 356.210938 534.625 355.902344 C 535.375 356.207031 536.152344 356.371094 536.960938 356.371094 C 552.101562 356.371094 559.769531 287.269531 565.929688 231.742188 C 567.992188 213.15625 569.988281 195.15625 572.011719 183.0625 C 573.019531 191.648438 573.824219 203.144531 574.6875 215.453125 C 577.851562 260.53125 581.785156 316.628906 599.058594 316.628906 C 600.054688 316.628906 600.984375 316.5625 601.871094 316.449219 C 602.40625 316.566406 602.957031 316.628906 603.519531 316.628906 C 604.515625 316.628906 605.449219 316.5625 606.335938 316.449219 C 606.871094 316.566406 607.417969 316.628906 607.980469 316.628906 C 620.957031 316.628906 624.285156 306.601562 627.804688 295.980469 C 631.84375 283.8125 636.015625 271.226562 654.808594 271.226562 L 654.808594 270.6875 C 653.21875 270.6875 651.742188 270.789062 650.347656 270.960938 Z M 618.878906 295.980469 C 622.765625 284.273438 626.78125 272.191406 643.804688 271.285156 C 630.0625 274.007812 626.25 285.511719 622.832031 295.8125 C 619.648438 305.40625 616.625 314.503906 606.363281 315.898438 C 606.054688 315.828125 605.75 315.730469 605.453125 315.613281 C 613.296875 312.8125 616.027344 304.589844 618.878906 295.980469 Z M 576.710938 168.046875 C 580.285156 168.046875 581.828125 190.015625 583.613281 215.457031 C 586.511719 256.785156 590.0625 307.375 603.945312 315.496094 C 603.296875 315.667969 602.617188 315.800781 601.898438 315.898438 C 586.480469 312.265625 582.570312 256.5 579.6875 215.417969 C 578.082031 192.554688 576.894531 177.117188 574.773438 170.765625 C 575.414062 169.007812 576.058594 168.046875 576.710938 168.046875 Z M 572.25 168.046875 C 572.996094 168.046875 573.652344 169.007812 574.242188 170.75 C 573.507812 172.753906 572.796875 175.671875 572.082031 179.457031 C 571.558594 175.691406 570.980469 172.773438 570.3125 170.765625 C 570.949219 169.007812 571.597656 168.046875 572.25 168.046875 Z M 557.003906 231.742188 C 560.640625 198.988281 564.070312 168.046875 567.789062 168.046875 C 568.535156 168.046875 569.191406 169.007812 569.78125 170.75 C 566.957031 178.449219 564.488281 199.621094 560.933594 231.683594 C 555.402344 281.519531 547.929688 348.863281 534.597656 355.324219 C 533.929688 355.03125 533.28125 354.621094 532.65625 354.085938 C 544.804688 341.710938 551.503906 281.316406 557.003906 231.742188 Z M 504.578125 208.757812 C 508.832031 208.757812 511.117188 234.195312 513.539062 261.125 C 516.886719 298.328125 520.945312 343.507812 531.910156 354.078125 C 531.332031 354.613281 530.742188 355.03125 530.136719 355.324219 C 517.597656 349.871094 513.191406 300.886719 509.613281 261.074219 C 507.183594 234.054688 505.375 215.671875 502.28125 210.046875 C 503.070312 209.214844 503.835938 208.757812 504.578125 208.757812 Z M 500.117188 208.757812 C 500.660156 208.757812 501.175781 209.179688 501.65625 209.960938 C 500.859375 210.875 500.042969 212.132812 499.207031 213.6875 C 498.773438 212.160156 498.3125 210.945312 497.820312 210.046875 C 498.609375 209.214844 499.375 208.757812 500.117188 208.757812 Z M 481.988281 235.601562 C 487.488281 220.605469 491.835938 208.757812 495.65625 208.757812 C 496.199219 208.757812 496.710938 209.179688 497.195312 209.960938 C 493.90625 213.722656 490.398438 223.269531 485.941406 235.417969 C 475.984375 262.554688 462.367188 299.664062 440 299.910156 C 460.101562 295.234375 472.648438 261.054688 481.988281 235.601562 Z M 490.40625 235.417969 C 480.449219 262.554688 466.832031 299.664062 444.460938 299.910156 C 464.566406 295.234375 477.109375 261.054688 486.449219 235.601562 C 490.722656 223.960938 494.296875 214.222656 497.46875 210.445312 C 497.957031 211.394531 498.414062 212.714844 498.851562 214.367188 C 496.347656 219.226562 493.625 226.644531 490.40625 235.417969 Z M 528.035156 355.832031 C 513.671875 355.832031 508.949219 303.292969 505.152344 261.078125 C 503.171875 239.042969 501.601562 222.757812 499.414062 214.441406 C 500.28125 212.765625 501.117188 211.410156 501.929688 210.445312 C 505.066406 216.539062 507.023438 238.292969 509.078125 261.125 C 512.621094 300.550781 516.972656 348.921875 529.488281 355.585938 C 529.011719 355.746094 528.527344 355.832031 528.035156 355.832031 Z M 532.5 355.832031 C 531.917969 355.832031 531.355469 355.738281 530.804688 355.570312 C 531.3125 355.273438 531.808594 354.886719 532.296875 354.429688 C 532.832031 354.902344 533.382812 355.285156 533.949219 355.585938 C 533.472656 355.746094 532.992188 355.832031 532.5 355.832031 Z M 565.394531 231.683594 C 559.582031 284.078125 551.621094 355.832031 536.960938 355.832031 C 536.378906 355.832031 535.816406 355.738281 535.269531 355.570312 C 548.597656 347.730469 555.695312 283.777344 561.464844 231.746094 C 564.367188 205.582031 567.144531 180.582031 570.035156 171.574219 C 570.691406 173.84375 571.261719 177.117188 571.773438 181.152344 C 569.851562 192.03125 567.890625 209.171875 565.394531 231.683594 Z M 599.054688 316.089844 C 582.285156 316.089844 578.203125 257.902344 575.222656 215.417969 C 574.203125 200.878906 573.351562 189.347656 572.320312 181.242188 C 573.042969 177.15625 573.765625 173.851562 574.5 171.574219 C 576.574219 178.769531 577.792969 196.105469 579.148438 215.453125 C 582.121094 257.832031 585.777344 309.945312 600.558594 316.035156 C 600.070312 316.066406 599.574219 316.089844 599.054688 316.089844 Z M 603.871094 316.082031 C 604.136719 316.015625 604.398438 315.949219 604.65625 315.871094 C 604.777344 315.929688 604.898438 315.984375 605.019531 316.035156 C 604.644531 316.0625 604.261719 316.078125 603.871094 316.082031 Z M 627.292969 295.8125 C 623.867188 306.140625 620.625 315.894531 608.332031 316.082031 C 617.40625 313.863281 620.304688 305.144531 623.34375 295.984375 C 627.226562 284.277344 631.242188 272.191406 648.269531 271.285156 C 634.527344 274.007812 630.710938 285.511719 627.292969 295.8125 Z M 627.292969 295.8125 " fill-opacity="1" fill-rule="nonzero"/></g><g fill="#ffffff" fill-opacity="1"><g transform="translate(369.119928, 316.84878)"><g><path d="M 17.640625 0 L 15 0 L 11.40625 -11.859375 L 7.75 0 L 5.109375 0 L 0.0625 -15.203125 L 2.828125 -15.203125 L 6.515625 -2.84375 L 10.1875 -15.1875 L 12.703125 -15.203125 L 16.390625 -2.84375 L 20.0625 -15.203125 L 22.71875 -15.203125 Z M 17.640625 0 "/></g></g></g><g fill="#ffffff" fill-opacity="1"><g transform="translate(396.142587, 316.84878)"><g><path d="M 3.0625 -13.0625 C 4.613281 -14.53125 6.523438 -15.265625 8.796875 -15.265625 C 11.066406 -15.265625 12.976562 -14.53125 14.53125 -13.0625 C 16.082031 -11.59375 16.859375 -9.769531 16.859375 -7.59375 C 16.859375 -5.425781 16.082031 -3.597656 14.53125 -2.109375 C 12.976562 -0.628906 11.066406 0.109375 8.796875 0.109375 C 6.523438 0.109375 4.613281 -0.628906 3.0625 -2.109375 C 1.507812 -3.597656 0.734375 -5.425781 0.734375 -7.59375 C 0.734375 -9.769531 1.507812 -11.59375 3.0625 -13.0625 Z M 8.8125 -12.96875 C 7.3125 -12.96875 6.023438 -12.445312 4.953125 -11.40625 C 3.878906 -10.375 3.34375 -9.101562 3.34375 -7.59375 C 3.34375 -6.09375 3.878906 -4.816406 4.953125 -3.765625 C 6.035156 -2.710938 7.320312 -2.1875 8.8125 -2.1875 C 10.3125 -2.1875 11.585938 -2.710938 12.640625 -3.765625 C 13.691406 -4.816406 14.21875 -6.09375 14.21875 -7.59375 C 14.21875 -9.101562 13.691406 -10.375 12.640625 -11.40625 C 11.585938 -12.445312 10.3125 -12.96875 8.8125 -12.96875 Z M 8.8125 -12.96875 "/></g></g></g><g fill="#ffffff" fill-opacity="1"><g transform="translate(418.256452, 316.84878)"><g><path d="M 11.640625 0 L 8.859375 -4.609375 C 8.710938 -4.585938 8.484375 -4.578125 8.171875 -4.578125 L 4.5625 -4.578125 L 4.5625 0 L 2 0 L 2 -15.203125 L 8.171875 -15.203125 C 10.109375 -15.203125 11.613281 -14.75 12.6875 -13.84375 C 13.757812 -12.9375 14.296875 -11.660156 14.296875 -10.015625 C 14.296875 -8.796875 14.019531 -7.765625 13.46875 -6.921875 C 12.925781 -6.085938 12.148438 -5.472656 11.140625 -5.078125 L 14.546875 0 Z M 4.5625 -6.890625 L 8.171875 -6.890625 C 10.628906 -6.890625 11.859375 -7.910156 11.859375 -9.953125 C 11.859375 -11.921875 10.628906 -12.90625 8.171875 -12.90625 L 4.5625 -12.90625 Z M 4.5625 -6.890625 "/></g></g></g><g fill="#ffffff" fill-opacity="1"><g transform="translate(438.480626, 316.84878)"><g><path d="M 7 -15.3125 C 8.96875 -15.3125 10.738281 -14.789062 12.3125 -13.75 L 11.25 -11.484375 C 9.695312 -12.429688 8.210938 -12.90625 6.796875 -12.90625 C 6.023438 -12.90625 5.421875 -12.765625 4.984375 -12.484375 C 4.546875 -12.210938 4.328125 -11.820312 4.328125 -11.3125 C 4.328125 -10.8125 4.523438 -10.378906 4.921875 -10.015625 C 5.328125 -9.660156 5.832031 -9.398438 6.4375 -9.234375 C 7.050781 -9.066406 7.710938 -8.859375 8.421875 -8.609375 C 9.128906 -8.359375 9.785156 -8.09375 10.390625 -7.8125 C 11.003906 -7.53125 11.507812 -7.085938 11.90625 -6.484375 C 12.3125 -5.878906 12.515625 -5.148438 12.515625 -4.296875 C 12.515625 -2.960938 11.976562 -1.894531 10.90625 -1.09375 C 9.84375 -0.300781 8.46875 0.09375 6.78125 0.09375 C 5.613281 0.09375 4.488281 -0.125 3.40625 -0.5625 C 2.320312 -1 1.375 -1.585938 0.5625 -2.328125 L 1.671875 -4.546875 C 2.441406 -3.828125 3.285156 -3.273438 4.203125 -2.890625 C 5.117188 -2.515625 5.988281 -2.328125 6.8125 -2.328125 C 7.71875 -2.328125 8.421875 -2.488281 8.921875 -2.8125 C 9.421875 -3.132812 9.671875 -3.585938 9.671875 -4.171875 C 9.671875 -4.691406 9.46875 -5.128906 9.0625 -5.484375 C 8.65625 -5.835938 8.144531 -6.097656 7.53125 -6.265625 C 6.925781 -6.429688 6.269531 -6.632812 5.5625 -6.875 C 4.851562 -7.113281 4.191406 -7.363281 3.578125 -7.625 C 2.972656 -7.894531 2.46875 -8.328125 2.0625 -8.921875 C 1.65625 -9.515625 1.453125 -10.234375 1.453125 -11.078125 C 1.453125 -12.367188 1.957031 -13.394531 2.96875 -14.15625 C 3.988281 -14.925781 5.332031 -15.3125 7 -15.3125 Z M 7 -15.3125 "/></g></g></g><g fill="#ffffff" fill-opacity="1"><g transform="translate(456.511054, 316.84878)"><g><path d="M 15.1875 0 L 12.625 0 L 12.625 -6.296875 L 4.5625 -6.296875 L 4.5625 0 L 2 0 L 2 -15.203125 L 4.5625 -15.203125 L 4.5625 -8.59375 L 12.625 -8.59375 L 12.625 -15.203125 L 15.1875 -15.203125 Z M 15.1875 0 "/></g></g></g><g fill="#ffffff" fill-opacity="1"><g transform="translate(478.212224, 316.84878)"><g><path d="M 4.5625 0 L 2 0 L 2 -15.203125 L 4.5625 -15.203125 Z M 4.5625 0 "/></g></g></g><g fill="#ffffff" fill-opacity="1"><g transform="translate(489.292136, 316.84878)"><g><path d="M 2 -15.203125 L 8.0625 -15.203125 C 9.96875 -15.203125 11.445312 -14.75 12.5 -13.84375 C 13.550781 -12.9375 14.078125 -11.660156 14.078125 -10.015625 C 14.078125 -8.285156 13.550781 -6.945312 12.5 -6 C 11.445312 -5.050781 9.96875 -4.578125 8.0625 -4.578125 L 4.5625 -4.578125 L 4.5625 0 L 2 0 Z M 4.5625 -12.90625 L 4.5625 -6.890625 L 7.953125 -6.890625 C 10.398438 -6.890625 11.625 -7.910156 11.625 -9.953125 C 11.625 -11.921875 10.398438 -12.90625 7.953125 -12.90625 Z M 4.5625 -12.90625 "/></g></g></g><g fill="#ffffff" fill-opacity="1"><g transform="translate(508.430311, 316.84878)"><g/></g></g><g fill="#ffffff" fill-opacity="1"><g transform="translate(518.554516, 316.84878)"><g><path d="M 7 -15.3125 C 8.96875 -15.3125 10.738281 -14.789062 12.3125 -13.75 L 11.25 -11.484375 C 9.695312 -12.429688 8.210938 -12.90625 6.796875 -12.90625 C 6.023438 -12.90625 5.421875 -12.765625 4.984375 -12.484375 C 4.546875 -12.210938 4.328125 -11.820312 4.328125 -11.3125 C 4.328125 -10.8125 4.523438 -10.378906 4.921875 -10.015625 C 5.328125 -9.660156 5.832031 -9.398438 6.4375 -9.234375 C 7.050781 -9.066406 7.710938 -8.859375 8.421875 -8.609375 C 9.128906 -8.359375 9.785156 -8.09375 10.390625 -7.8125 C 11.003906 -7.53125 11.507812 -7.085938 11.90625 -6.484375 C 12.3125 -5.878906 12.515625 -5.148438 12.515625 -4.296875 C 12.515625 -2.960938 11.976562 -1.894531 10.90625 -1.09375 C 9.84375 -0.300781 8.46875 0.09375 6.78125 0.09375 C 5.613281 0.09375 4.488281 -0.125 3.40625 -0.5625 C 2.320312 -1 1.375 -1.585938 0.5625 -2.328125 L 1.671875 -4.546875 C 2.441406 -3.828125 3.285156 -3.273438 4.203125 -2.890625 C 5.117188 -2.515625 5.988281 -2.328125 6.8125 -2.328125 C 7.71875 -2.328125 8.421875 -2.488281 8.921875 -2.8125 C 9.421875 -3.132812 9.671875 -3.585938 9.671875 -4.171875 C 9.671875 -4.691406 9.46875 -5.128906 9.0625 -5.484375 C 8.65625 -5.835938 8.144531 -6.097656 7.53125 -6.265625 C 6.925781 -6.429688 6.269531 -6.632812 5.5625 -6.875 C 4.851562 -7.113281 4.191406 -7.363281 3.578125 -7.625 C 2.972656 -7.894531 2.46875 -8.328125 2.0625 -8.921875 C 1.65625 -9.515625 1.453125 -10.234375 1.453125 -11.078125 C 1.453125 -12.367188 1.957031 -13.394531 2.96875 -14.15625 C 3.988281 -14.925781 5.332031 -15.3125 7 -15.3125 Z M 7 -15.3125 "/></g></g></g><g fill="#ffffff" fill-opacity="1"><g transform="translate(536.584943, 316.84878)"><g><path d="M 3.0625 -13.0625 C 4.613281 -14.53125 6.523438 -15.265625 8.796875 -15.265625 C 11.066406 -15.265625 12.976562 -14.53125 14.53125 -13.0625 C 16.082031 -11.59375 16.859375 -9.769531 16.859375 -7.59375 C 16.859375 -5.425781 16.082031 -3.597656 14.53125 -2.109375 C 12.976562 -0.628906 11.066406 0.109375 8.796875 0.109375 C 6.523438 0.109375 4.613281 -0.628906 3.0625 -2.109375 C 1.507812 -3.597656 0.734375 -5.425781 0.734375 -7.59375 C 0.734375 -9.769531 1.507812 -11.59375 3.0625 -13.0625 Z M 8.8125 -12.96875 C 7.3125 -12.96875 6.023438 -12.445312 4.953125 -11.40625 C 3.878906 -10.375 3.34375 -9.101562 3.34375 -7.59375 C 3.34375 -6.09375 3.878906 -4.816406 4.953125 -3.765625 C 6.035156 -2.710938 7.320312 -2.1875 8.8125 -2.1875 C 10.3125 -2.1875 11.585938 -2.710938 12.640625 -3.765625 C 13.691406 -4.816406 14.21875 -6.09375 14.21875 -7.59375 C 14.21875 -9.101562 13.691406 -10.375 12.640625 -11.40625 C 11.585938 -12.445312 10.3125 -12.96875 8.8125 -12.96875 Z M 8.8125 -12.96875 "/></g></g></g><g fill="#ffffff" fill-opacity="1"><g transform="translate(558.698809, 316.84878)"><g><path d="M 15.1875 0 L 12.65625 0 L 4.5625 -10.90625 L 4.5625 0 L 2 0 L 2 -15.203125 L 4.515625 -15.203125 L 12.65625 -4.28125 L 12.65625 -15.203125 L 15.1875 -15.203125 Z M 15.1875 0 "/></g></g></g><g fill="#ffffff" fill-opacity="1"><g transform="translate(580.421705, 316.84878)"><g><path d="M 12.40625 -7.46875 L 14.640625 -7.46875 L 14.640625 -1.875 C 13.859375 -1.28125 12.929688 -0.800781 11.859375 -0.4375 C 10.796875 -0.0703125 9.753906 0.109375 8.734375 0.109375 C 6.484375 0.109375 4.585938 -0.628906 3.046875 -2.109375 C 1.503906 -3.597656 0.734375 -5.425781 0.734375 -7.59375 C 0.734375 -9.769531 1.515625 -11.59375 3.078125 -13.0625 C 4.640625 -14.53125 6.578125 -15.265625 8.890625 -15.265625 C 9.953125 -15.265625 11 -15.070312 12.03125 -14.6875 C 13.070312 -14.300781 13.96875 -13.785156 14.71875 -13.140625 L 13.265625 -11.25 C 12.023438 -12.40625 10.566406 -12.984375 8.890625 -12.984375 C 7.335938 -12.984375 6.023438 -12.460938 4.953125 -11.421875 C 3.878906 -10.378906 3.34375 -9.101562 3.34375 -7.59375 C 3.34375 -6.082031 3.878906 -4.800781 4.953125 -3.75 C 6.035156 -2.707031 7.351562 -2.1875 8.90625 -2.1875 C 10.070312 -2.1875 11.238281 -2.535156 12.40625 -3.234375 Z M 12.40625 -7.46875 "/></g></g></g><g fill="#ffffff" fill-opacity="1"><g transform="translate(601.210629, 316.84878)"><g><path d="M 2 -15.203125 L 8.59375 -15.203125 C 10.175781 -15.203125 11.421875 -14.863281 12.328125 -14.1875 C 13.242188 -13.519531 13.703125 -12.59375 13.703125 -11.40625 C 13.703125 -10.550781 13.460938 -9.820312 12.984375 -9.21875 C 12.503906 -8.613281 11.851562 -8.210938 11.03125 -8.015625 C 12.039062 -7.835938 12.835938 -7.410156 13.421875 -6.734375 C 14.003906 -6.054688 14.296875 -5.203125 14.296875 -4.171875 C 14.296875 -2.867188 13.800781 -1.847656 12.8125 -1.109375 C 11.832031 -0.367188 10.476562 0 8.75 0 L 2 0 Z M 4.5625 -12.921875 L 4.5625 -8.90625 L 8.46875 -8.90625 C 9.28125 -8.90625 9.914062 -9.082031 10.375 -9.4375 C 10.84375 -9.800781 11.078125 -10.300781 11.078125 -10.9375 C 11.078125 -11.582031 10.847656 -12.070312 10.390625 -12.40625 C 9.929688 -12.75 9.289062 -12.921875 8.46875 -12.921875 Z M 4.5625 -6.640625 L 4.5625 -2.28125 L 8.46875 -2.28125 C 9.476562 -2.28125 10.257812 -2.472656 10.8125 -2.859375 C 11.375 -3.242188 11.65625 -3.789062 11.65625 -4.5 C 11.65625 -5.164062 11.375 -5.6875 10.8125 -6.0625 C 10.25 -6.445312 9.46875 -6.640625 8.46875 -6.640625 Z M 4.5625 -6.640625 "/></g></g></g><g fill="#ffffff" fill-opacity="1"><g transform="translate(621.065565, 316.84878)"><g><path d="M 3.0625 -13.0625 C 4.613281 -14.53125 6.523438 -15.265625 8.796875 -15.265625 C 11.066406 -15.265625 12.976562 -14.53125 14.53125 -13.0625 C 16.082031 -11.59375 16.859375 -9.769531 16.859375 -7.59375 C 16.859375 -5.425781 16.082031 -3.597656 14.53125 -2.109375 C 12.976562 -0.628906 11.066406 0.109375 8.796875 0.109375 C 6.523438 0.109375 4.613281 -0.628906 3.0625 -2.109375 C 1.507812 -3.597656 0.734375 -5.425781 0.734375 -7.59375 C 0.734375 -9.769531 1.507812 -11.59375 3.0625 -13.0625 Z M 8.8125 -12.96875 C 7.3125 -12.96875 6.023438 -12.445312 4.953125 -11.40625 C 3.878906 -10.375 3.34375 -9.101562 3.34375 -7.59375 C 3.34375 -6.09375 3.878906 -4.816406 4.953125 -3.765625 C 6.035156 -2.710938 7.320312 -2.1875 8.8125 -2.1875 C 10.3125 -2.1875 11.585938 -2.710938 12.640625 -3.765625 C 13.691406 -4.816406 14.21875 -6.09375 14.21875 -7.59375 C 14.21875 -9.101562 13.691406 -10.375 12.640625 -11.40625 C 11.585938 -12.445312 10.3125 -12.96875 8.8125 -12.96875 Z M 8.8125 -12.96875 "/></g></g></g><g fill="#ffffff" fill-opacity="1"><g transform="translate(643.179431, 316.84878)"><g><path d="M 3.0625 -13.0625 C 4.613281 -14.53125 6.523438 -15.265625 8.796875 -15.265625 C 11.066406 -15.265625 12.976562 -14.53125 14.53125 -13.0625 C 16.082031 -11.59375 16.859375 -9.769531 16.859375 -7.59375 C 16.859375 -5.425781 16.082031 -3.597656 14.53125 -2.109375 C 12.976562 -0.628906 11.066406 0.109375 8.796875 0.109375 C 6.523438 0.109375 4.613281 -0.628906 3.0625 -2.109375 C 1.507812 -3.597656 0.734375 -5.425781 0.734375 -7.59375 C 0.734375 -9.769531 1.507812 -11.59375 3.0625 -13.0625 Z M 8.8125 -12.96875 C 7.3125 -12.96875 6.023438 -12.445312 4.953125 -11.40625 C 3.878906 -10.375 3.34375 -9.101562 3.34375 -7.59375 C 3.34375 -6.09375 3.878906 -4.816406 4.953125 -3.765625 C 6.035156 -2.710938 7.320312 -2.1875 8.8125 -2.1875 C 10.3125 -2.1875 11.585938 -2.710938 12.640625 -3.765625 C 13.691406 -4.816406 14.21875 -6.09375 14.21875 -7.59375 C 14.21875 -9.101562 13.691406 -10.375 12.640625 -11.40625 C 11.585938 -12.445312 10.3125 -12.96875 8.8125 -12.96875 Z M 8.8125 -12.96875 "/></g></g></g><g fill="#ffffff" fill-opacity="1"><g transform="translate(665.293296, 316.84878)"><g><path d="M 12.140625 0 L 7.140625 -6.71875 L 4.5625 -3.859375 L 4.5625 0 L 2 0 L 2 -15.203125 L 4.5625 -15.203125 L 4.5625 -7.34375 L 11.8125 -15.203125 L 14.828125 -15.203125 L 8.953125 -8.703125 L 15.21875 0 Z M 12.140625 0 "/></g></g></g><g fill="#963900" fill-opacity="1"><g transform="translate(297.069106, 274.92464)"><g><path d="M 36.625 0 L 30.4375 0 L 30.4375 -15.1875 L 11 -15.1875 L 11 0 L 4.8125 0 L 4.8125 -36.671875 L 11 -36.671875 L 11 -20.75 L 30.4375 -20.75 L 30.4375 -36.671875 L 36.625 -36.671875 Z M 36.625 0 "/></g></g></g><g fill="#963900" fill-opacity="1"><g transform="translate(343.12052, 274.92464)"><g><path d="M 19.859375 -12.203125 L 19.859375 0 L 13.71875 0 L 13.71875 -12 L 0.046875 -36.671875 L 6.28125 -36.671875 L 16.765625 -18.8125 L 27.03125 -36.671875 L 33.328125 -36.671875 Z M 19.859375 -12.203125 "/></g></g></g><g fill="#963900" fill-opacity="1"><g transform="translate(381.103937, 274.92464)"><g><path d="M 43.59375 0 L 37.875 0 L 37.828125 -27.40625 L 26.25 -3.828125 L 22.21875 -3.828125 L 10.640625 -27.40625 L 10.640625 0 L 4.8125 0 L 4.8125 -36.671875 L 12.15625 -36.671875 L 24.25 -12.3125 L 36.3125 -36.671875 L 43.59375 -36.671875 Z M 43.59375 0 "/></g></g></g><g fill="#963900" fill-opacity="1"><g transform="translate(434.175553, 274.92464)"><g><path d="M 36.625 0 L 30.546875 0 L 11 -26.296875 L 11 0 L 4.8125 0 L 4.8125 -36.671875 L 10.890625 -36.671875 L 30.546875 -10.328125 L 30.546875 -36.671875 L 36.625 -36.671875 Z M 36.625 0 "/></g></g></g><g fill="#963900" fill-opacity="1"><g transform="translate(480.279371, 274.92464)"><g/></g></g><g fill="#ffffff" fill-opacity="1"><g transform="translate(498.406179, 274.92464)"><g><path d="M 21.0625 -36.828125 C 23.644531 -36.828125 26.164062 -36.328125 28.625 -35.328125 C 31.09375 -34.335938 33.21875 -32.953125 35 -31.171875 L 31.375 -26.671875 C 30.050781 -28.097656 28.476562 -29.226562 26.65625 -30.0625 C 24.84375 -30.90625 23.015625 -31.328125 21.171875 -31.328125 C 17.503906 -31.328125 14.398438 -30.078125 11.859375 -27.578125 C 9.328125 -25.085938 8.0625 -22.039062 8.0625 -18.4375 C 8.0625 -14.8125 9.328125 -11.75 11.859375 -9.25 C 14.398438 -6.75 17.503906 -5.5 21.171875 -5.5 C 24.972656 -5.5 28.375 -6.945312 31.375 -9.84375 L 35.046875 -5.765625 C 33.160156 -3.910156 30.957031 -2.441406 28.4375 -1.359375 C 25.925781 -0.273438 23.394531 0.265625 20.84375 0.265625 C 15.46875 0.265625 10.945312 -1.523438 7.28125 -5.109375 C 3.613281 -8.691406 1.78125 -13.117188 1.78125 -18.390625 C 1.78125 -23.585938 3.640625 -27.957031 7.359375 -31.5 C 11.078125 -35.050781 15.644531 -36.828125 21.0625 -36.828125 Z M 21.0625 -36.828125 "/></g></g></g><g fill="#ffffff" fill-opacity="1"><g transform="translate(539.53297, 274.92464)"><g><path d="M 36.625 0 L 30.4375 0 L 30.4375 -15.1875 L 11 -15.1875 L 11 0 L 4.8125 0 L 4.8125 -36.671875 L 11 -36.671875 L 11 -20.75 L 30.4375 -20.75 L 30.4375 -36.671875 L 36.625 -36.671875 Z M 36.625 0 "/></g></g></g><g fill="#ffffff" fill-opacity="1"><g transform="translate(585.584385, 274.92464)"><g><path d="M 7.390625 -31.5 C 11.128906 -35.050781 15.738281 -36.828125 21.21875 -36.828125 C 26.695312 -36.828125 31.304688 -35.050781 35.046875 -31.5 C 38.785156 -27.957031 40.65625 -23.566406 40.65625 -18.328125 C 40.65625 -13.097656 38.785156 -8.691406 35.046875 -5.109375 C 31.304688 -1.523438 26.695312 0.265625 21.21875 0.265625 C 15.738281 0.265625 11.128906 -1.523438 7.390625 -5.109375 C 3.648438 -8.691406 1.78125 -13.097656 1.78125 -18.328125 C 1.78125 -23.566406 3.648438 -27.957031 7.390625 -31.5 Z M 21.265625 -31.28125 C 17.640625 -31.28125 14.53125 -30.03125 11.9375 -27.53125 C 9.351562 -25.03125 8.0625 -21.960938 8.0625 -18.328125 C 8.0625 -14.703125 9.363281 -11.625 11.96875 -9.09375 C 14.570312 -6.5625 17.671875 -5.296875 21.265625 -5.296875 C 24.867188 -5.296875 27.941406 -6.5625 30.484375 -9.09375 C 33.035156 -11.625 34.3125 -14.703125 34.3125 -18.328125 C 34.3125 -21.960938 33.035156 -25.03125 30.484375 -27.53125 C 27.941406 -30.03125 24.867188 -31.28125 21.265625 -31.28125 Z M 21.265625 -31.28125 "/></g></g></g><g fill="#ffffff" fill-opacity="1"><g transform="translate(632.631213, 274.92464)"><g><path d="M 28.078125 0 L 21.375 -11.109375 C 21.019531 -11.066406 20.460938 -11.046875 19.703125 -11.046875 L 11 -11.046875 L 11 0 L 4.8125 0 L 4.8125 -36.671875 L 19.703125 -36.671875 C 24.378906 -36.671875 28.007812 -35.578125 30.59375 -33.390625 C 33.175781 -31.210938 34.46875 -28.132812 34.46875 -24.15625 C 34.46875 -21.21875 33.8125 -18.734375 32.5 -16.703125 C 31.195312 -14.679688 29.320312 -13.203125 26.875 -12.265625 L 35.109375 0 Z M 11 -16.609375 L 19.703125 -16.609375 C 25.640625 -16.609375 28.609375 -19.070312 28.609375 -24 C 28.609375 -28.75 25.640625 -31.125 19.703125 -31.125 L 11 -31.125 Z M 11 -16.609375 "/></g></g></g><g fill="#ffffff" fill-opacity="1"><g transform="translate(675.120133, 274.92464)"><g><path d="M 4.8125 -36.671875 L 19.859375 -36.671875 C 25.335938 -36.671875 29.867188 -34.941406 33.453125 -31.484375 C 37.035156 -28.023438 38.828125 -23.640625 38.828125 -18.328125 C 38.828125 -13.023438 37.023438 -8.644531 33.421875 -5.1875 C 29.828125 -1.726562 25.253906 0 19.703125 0 L 4.8125 0 Z M 11 -31.125 L 11 -5.546875 L 20.015625 -5.546875 C 23.609375 -5.546875 26.601562 -6.742188 29 -9.140625 C 31.394531 -11.535156 32.59375 -14.582031 32.59375 -18.28125 C 32.59375 -21.988281 31.359375 -25.054688 28.890625 -27.484375 C 26.429688 -29.910156 23.382812 -31.125 19.75 -31.125 Z M 11 -31.125 "/></g></g></g><g fill="#ffffff" fill-opacity="1"><g transform="translate(720.333325, 274.92464)"><g><path d="M 16.875 -36.9375 C 21.625 -36.9375 25.898438 -35.675781 29.703125 -33.15625 L 27.140625 -27.71875 C 23.398438 -29.988281 19.816406 -31.125 16.390625 -31.125 C 14.546875 -31.125 13.085938 -30.789062 12.015625 -30.125 C 10.953125 -29.457031 10.421875 -28.515625 10.421875 -27.296875 C 10.421875 -26.078125 10.910156 -25.035156 11.890625 -24.171875 C 12.867188 -23.316406 14.09375 -22.6875 15.5625 -22.28125 C 17.03125 -21.882812 18.617188 -21.378906 20.328125 -20.765625 C 22.035156 -20.160156 23.625 -19.515625 25.09375 -18.828125 C 26.5625 -18.148438 27.773438 -17.085938 28.734375 -15.640625 C 29.691406 -14.191406 30.171875 -12.4375 30.171875 -10.375 C 30.171875 -7.15625 28.882812 -4.585938 26.3125 -2.671875 C 23.75 -0.753906 20.425781 0.203125 16.34375 0.203125 C 13.550781 0.203125 10.84375 -0.316406 8.21875 -1.359375 C 5.601562 -2.410156 3.316406 -3.828125 1.359375 -5.609375 L 4.03125 -10.953125 C 5.882812 -9.234375 7.921875 -7.910156 10.140625 -6.984375 C 12.359375 -6.066406 14.460938 -5.609375 16.453125 -5.609375 C 18.617188 -5.609375 20.300781 -6 21.5 -6.78125 C 22.707031 -7.570312 23.3125 -8.664062 23.3125 -10.0625 C 23.3125 -11.3125 22.820312 -12.363281 21.84375 -13.21875 C 20.863281 -14.082031 19.640625 -14.710938 18.171875 -15.109375 C 16.710938 -15.515625 15.125 -16.003906 13.40625 -16.578125 C 11.695312 -17.160156 10.109375 -17.773438 8.640625 -18.421875 C 7.171875 -19.066406 5.945312 -20.101562 4.96875 -21.53125 C 4 -22.96875 3.515625 -24.695312 3.515625 -26.71875 C 3.515625 -29.820312 4.734375 -32.300781 7.171875 -34.15625 C 9.617188 -36.007812 12.851562 -36.9375 16.875 -36.9375 Z M 16.875 -36.9375 "/></g></g></g></svg>